<svg width="27" height="21" viewBox="0 0 27 21" fill="none" xmlns="http://www.w3.org/2000/svg">
<path d="M5.18697 11.6232L25.5509 11.6246H25.5509C25.7068 11.6246 25.8611 11.5939 26.0052 11.5342C26.1492 11.4746 26.2801 11.3871 26.3903 11.2769C26.5005 11.1667 26.588 11.0358 26.6476 10.8918C26.7073 10.7478 26.738 10.5934 26.738 10.4375C26.738 10.2816 26.7073 10.1272 26.6476 9.98321C26.588 9.83919 26.5005 9.70832 26.3903 9.59809C26.2801 9.48785 26.1492 9.40041 26.0052 9.34075C25.8611 9.2811 25.7068 9.25039 25.5509 9.25039H25.5509L5.18697 9.25183L11.9519 2.48693C12.1743 2.26455 12.2992 1.96294 12.2992 1.64844C12.2992 1.33395 12.1743 1.03234 11.9519 0.809955C11.7295 0.587575 11.4279 0.462641 11.1134 0.462642C10.7989 0.462642 10.4973 0.587575 10.2749 0.809956L1.48584 9.59901C1.26346 9.82139 1.13853 10.123 1.13853 10.4375C1.13853 10.752 1.26346 11.0536 1.48584 11.276L10.2749 20.065C10.4973 20.2874 10.7989 20.4124 11.1134 20.4124C11.4279 20.4124 11.7295 20.2874 11.9519 20.065C12.1743 19.8427 12.2992 19.541 12.2992 19.2266C12.2992 18.9121 12.1743 18.6105 11.9519 18.3881L5.18697 11.6232Z" fill="#4A3DF4" stroke="#4A3DF4" stroke-width="0.3"/>
</svg>
